# MagicaVoxel @ Ephtracy

# group
o 

# material
mtllib Missile.mtl
usemtl palette

# normals
vn -1 0 0
vn 1 0 0
vn 0 0 1
vn 0 0 -1
vn 0 -1 0
vn 0 1 0

# texcoords
vt 0.841797 0.5
vt 0.990234 0.5

# verts
v -0.5 0.1 -0.4
v -0.5 0.1 -0.5
v -0.5 0.5 -0.4
v -0.5 0.5 -0.5
v -0.3 0 0
v -0.3 0 -0.5
v -0.3 0.1 -0.4
v -0.3 0.1 -0.5
v -0.3 0.5 -0.4
v -0.3 0.5 -0.5
v -0.3 0.8 0
v -0.3 0.8 -0.5
v -0.2 0 0.5
v -0.2 0 0.1
v -0.2 0.2 0.1
v -0.2 0.2 0
v -0.2 0.6 0.5
v -0.2 0.6 0
v -0.1 0.7 0.1
v -0.1 0.7 0
v -0.1 0.8 0
v -0.1 0.8 -0.5
v -0.1 1 0.1
v -0.1 1 -0.5
v 0.3 0.3 0.5
v 0.3 0.3 0
v 0.3 0.5 0.5
v 0.3 0.5 0
v 0.1 0.7 0.1
v 0.1 0.7 0
v 0.1 0.8 0
v 0.1 0.8 -0.5
v 0.1 1 0.1
v 0.1 1 -0.5
v 0.2 0 0.5
v 0.2 0 0.1
v 0.2 0.2 0.1
v 0.2 0.2 0
v 0.2 0.6 0.5
v 0.2 0.6 0
v 0.3 0 0
v 0.3 0 -0.5
v 0.3 0.3 0
v 0.3 0.3 -0.5
v 0.3 0.5 0
v 0.3 0.5 -0.5
v 0.3 0.8 0
v 0.3 0.8 -0.5
v 0.5 0.3 0.5
v 0.5 0.3 -0.5
v 0.5 0.5 0.5
v 0.5 0.5 -0.5
v -0.2 0 0.5
v -0.2 0.6 0.5
v 0.2 0 0.5
v 0.2 0.6 0.5
v 0.3 0.3 0.5
v 0.3 0.5 0.5
v 0.5 0.3 0.5
v 0.5 0.5 0.5
v -0.1 0.7 0.1
v -0.1 1 0.1
v 0.1 0.7 0.1
v 0.1 1 0.1
v -0.3 0 0
v -0.3 0.8 0
v -0.2 0.2 0
v -0.2 0.6 0
v -0.1 0.7 0
v -0.1 0.8 0
v 0.1 0.7 0
v 0.1 0.8 0
v 0.2 0.2 0
v 0.2 0.6 0
v 0.3 0 0
v 0.3 0.3 0
v 0.3 0.5 0
v 0.3 0.8 0
v -0.5 0.1 -0.4
v -0.5 0.5 -0.4
v -0.3 0.1 -0.4
v -0.3 0.5 -0.4
v -0.2 0 0.1
v -0.2 0.2 0.1
v 0.2 0 0.1
v 0.2 0.2 0.1
v -0.5 0.1 -0.5
v -0.5 0.5 -0.5
v -0.3 0 -0.5
v -0.3 0.1 -0.5
v -0.3 0.5 -0.5
v -0.3 0.8 -0.5
v -0.1 0.8 -0.5
v -0.1 1 -0.5
v 0.1 0.8 -0.5
v 0.1 1 -0.5
v 0.3 0 -0.5
v 0.3 0.3 -0.5
v 0.3 0.5 -0.5
v 0.3 0.8 -0.5
v 0.5 0.3 -0.5
v 0.5 0.5 -0.5
v -0.2 0 0.5
v 0.2 0 0.5
v -0.2 0 0.1
v 0.2 0 0.1
v -0.3 0 0
v 0.3 0 0
v -0.3 0 -0.5
v 0.3 0 -0.5
v -0.5 0.1 -0.4
v -0.3 0.1 -0.4
v -0.5 0.1 -0.5
v -0.3 0.1 -0.5
v -0.2 0.2 0.1
v 0.2 0.2 0.1
v -0.2 0.2 0
v 0.2 0.2 0
v 0.3 0.3 0.5
v 0.5 0.3 0.5
v 0.3 0.3 0
v 0.3 0.3 -0.5
v 0.5 0.3 -0.5
v -0.1 0.7 0.1
v 0.1 0.7 0.1
v -0.1 0.7 0
v 0.1 0.7 0
v 0.3 0.5 0.5
v 0.5 0.5 0.5
v 0.3 0.5 0
v -0.5 0.5 -0.4
v -0.3 0.5 -0.4
v -0.5 0.5 -0.5
v -0.3 0.5 -0.5
v 0.3 0.5 -0.5
v 0.5 0.5 -0.5
v -0.2 0.6 0.5
v 0.2 0.6 0.5
v -0.2 0.6 0
v 0.2 0.6 0
v -0.3 0.8 0
v -0.1 0.8 0
v 0.1 0.8 0
v 0.3 0.8 0
v -0.3 0.8 -0.5
v -0.1 0.8 -0.5
v 0.1 0.8 -0.5
v 0.3 0.8 -0.5
v -0.1 1 0.1
v 0.1 1 0.1
v -0.1 1 -0.5
v 0.1 1 -0.5

# faces
f 3/1/1 2/1/1 1/1/1
f 4/1/1 2/1/1 3/1/1
f 7/2/1 6/2/1 5/2/1
f 8/2/1 6/2/1 7/2/1
f 9/2/1 7/2/1 5/2/1
f 11/2/1 9/2/1 5/2/1
f 11/2/1 10/2/1 9/2/1
f 12/2/1 10/2/1 11/2/1
f 15/1/1 14/1/1 13/1/1
f 17/1/1 15/1/1 13/1/1
f 17/1/1 16/1/1 15/1/1
f 18/1/1 16/1/1 17/1/1
f 21/1/1 20/1/1 19/1/1
f 23/1/1 21/1/1 19/1/1
f 23/1/1 22/1/1 21/1/1
f 24/1/1 22/1/1 23/1/1
f 27/1/1 26/1/1 25/1/1
f 28/1/1 26/1/1 27/1/1
f 29/1/2 30/1/2 31/1/2
f 29/1/2 31/1/2 33/1/2
f 31/1/2 32/1/2 33/1/2
f 33/1/2 32/1/2 34/1/2
f 35/1/2 36/1/2 37/1/2
f 35/1/2 37/1/2 39/1/2
f 37/1/2 38/1/2 39/1/2
f 39/1/2 38/1/2 40/1/2
f 41/2/2 42/2/2 43/2/2
f 43/2/2 42/2/2 44/2/2
f 45/2/2 46/2/2 47/2/2
f 47/2/2 46/2/2 48/2/2
f 49/1/2 50/1/2 51/1/2
f 51/1/2 50/1/2 52/1/2
f 55/1/3 54/1/3 53/1/3
f 56/1/3 54/1/3 55/1/3
f 59/1/3 58/1/3 57/1/3
f 60/1/3 58/1/3 59/1/3
f 63/1/3 62/1/3 61/1/3
f 64/1/3 62/1/3 63/1/3
f 67/2/3 66/2/3 65/2/3
f 68/2/3 66/2/3 67/2/3
f 69/2/3 66/2/3 68/2/3
f 70/2/3 66/2/3 69/2/3
f 71/2/3 69/2/3 68/2/3
f 73/2/3 67/2/3 65/2/3
f 74/2/3 72/2/3 71/2/3
f 74/2/3 71/2/3 68/2/3
f 75/2/3 73/2/3 65/2/3
f 75/2/3 74/2/3 73/2/3
f 76/2/3 74/2/3 75/2/3
f 77/2/3 74/2/3 76/2/3
f 78/2/3 72/2/3 74/2/3
f 78/2/3 74/2/3 77/2/3
f 81/1/3 80/1/3 79/1/3
f 82/1/3 80/1/3 81/1/3
f 83/1/4 84/1/4 85/1/4
f 85/1/4 84/1/4 86/1/4
f 87/1/4 88/1/4 90/1/4
f 90/1/4 88/1/4 91/1/4
f 89/2/4 90/2/4 93/2/4
f 91/2/4 92/2/4 93/2/4
f 90/2/4 91/2/4 93/2/4
f 89/2/4 93/2/4 95/2/4
f 93/1/4 94/1/4 95/1/4
f 95/1/4 94/1/4 96/1/4
f 89/2/4 95/2/4 97/2/4
f 97/2/4 95/2/4 98/2/4
f 98/2/4 95/2/4 99/2/4
f 99/2/4 95/2/4 100/2/4
f 98/1/4 99/1/4 101/1/4
f 101/1/4 99/1/4 102/1/4
f 105/1/5 104/1/5 103/1/5
f 106/1/5 104/1/5 105/1/5
f 109/2/5 108/2/5 107/2/5
f 110/2/5 108/2/5 109/2/5
f 113/1/5 112/1/5 111/1/5
f 114/1/5 112/1/5 113/1/5
f 117/1/5 116/1/5 115/1/5
f 118/1/5 116/1/5 117/1/5
f 121/1/5 120/1/5 119/1/5
f 122/1/5 120/1/5 121/1/5
f 123/1/5 120/1/5 122/1/5
f 126/1/5 125/1/5 124/1/5
f 127/1/5 125/1/5 126/1/5
f 128/1/6 129/1/6 130/1/6
f 131/1/6 132/1/6 133/1/6
f 133/1/6 132/1/6 134/1/6
f 130/1/6 129/1/6 135/1/6
f 135/1/6 129/1/6 136/1/6
f 137/1/6 138/1/6 139/1/6
f 139/1/6 138/1/6 140/1/6
f 141/2/6 142/2/6 145/2/6
f 145/2/6 142/2/6 146/2/6
f 143/2/6 144/2/6 147/2/6
f 147/2/6 144/2/6 148/2/6
f 149/1/6 150/1/6 151/1/6
f 151/1/6 150/1/6 152/1/6
